<?xml version="1.0" encoding="UTF-8"?>
<svg width="22px" height="21px" viewBox="0 0 22 21" version="1.1" xmlns="http://www.w3.org/2000/svg" xmlns:xlink="http://www.w3.org/1999/xlink">
    <title>收藏</title>
    <g id="523" stroke="none" stroke-width="1" fill="none" fill-rule="evenodd">
        <g id="首页-导航菜单" transform="translate(-83.000000, -635.000000)" stroke="#222222" stroke-width="0.952380952">
            <g id="左侧菜单-英文">
                <g id="其他" transform="translate(0.000000, 630.000000)">
                    <g id="编组-27" transform="translate(79.000000, 0.000000)">
                        <g id="编组-25">
                            <path d="M16.3620195,6.8392342 L18.275547,10.6823173 C18.4970502,11.1263408 18.9245563,11.4340848 19.4190634,11.5054457 L23.6981248,12.1219248 C24.9436426,12.3013182 25.4411498,13.818729 24.5396368,14.6894314 L21.4435924,17.6806434 C21.0855873,18.0265457 20.9220849,18.5245855 21.0065862,19.0132096 L21.7375966,23.2368843 C21.9505997,24.4663735 20.648081,25.4044723 19.534065,24.8236737 L15.7070101,22.8295323 C15.2645038,22.599096 14.7354962,22.599096 14.2934899,22.8295323 L10.465935,24.8236737 C9.35191898,25.4044723 8.0494003,24.4663735 8.26240335,23.2368843 L8.99341384,19.0132096 C9.07791505,18.5245855 8.9144127,18.0265457 8.55640757,17.6806434 L5.46036316,14.6894314 C4.55885023,13.818729 5.05635736,12.3013182 6.30187523,12.1219248 L10.5809366,11.5054457 C11.0754437,11.4340848 11.5034498,11.1263408 11.724453,10.6823173 L13.6379805,6.8392342 C14.1949885,5.72025527 15.8050115,5.72025527 16.3620195,6.8392342 L16.3620195,6.8392342 Z" id="收藏"></path>
                        </g>
                    </g>
                </g>
            </g>
        </g>
    </g>
</svg>