<?xml version="1.0" encoding="UTF-8"?>
<svg width="20px" height="17px" viewBox="0 0 20 17" version="1.1" xmlns="http://www.w3.org/2000/svg" xmlns:xlink="http://www.w3.org/1999/xlink">
    <title>Gclub选中</title>
    <g id="523" stroke="none" stroke-width="1" fill="none" fill-rule="evenodd">
        <g id="首页-导航菜单" transform="translate(-14.000000, -241.000000)" fill="#BE9C63" fill-rule="nonzero">
            <g id="Gclub选中" transform="translate(14.000000, 241.000000)">
                <path d="M19.9055373,6.39411261 L16.8006899,0.455843943 C16.6543373,0.175965926 16.3609996,0 16.0407738,0 L3.99479594,0 C3.67610703,0 3.38390973,0.174296296 3.23686561,0.452122953 L0.0964133109,6.38517316 C-0.0723481737,6.70399694 -0.0158677318,7.0930126 0.236893072,7.35274396 L9.37285715,16.7407105 C9.53389624,16.9061816 9.7567266,17 9.98973047,17 L9.99030772,17 C10.2231202,17 10.4458481,16.9066343 10.6069732,16.7415047 L19.7623099,7.35873385 C20.0146382,7.1001682 20.0721634,6.71274256 19.9055373,6.39411261 L19.9055373,6.39411261 Z M15.0469326,7.33915327 L10.6119607,11.884297 C10.4508356,12.0494266 10.2281076,12.1427923 9.99529517,12.1427923 L9.99471792,12.1427923 C9.76170896,12.1426379 9.53887507,12.0489662 9.3778446,11.8834802 L4.95229343,7.33584069 C4.62619289,7.0007474 4.63829207,6.46934921 4.97930877,6.148913 C5.32032546,5.82845409 5.86111712,5.8403658 6.18721766,6.17545908 L9.9961495,10.0894639 L13.8136247,6.17716076 C14.1401639,5.84249856 14.6810017,5.83133559 15.0215566,6.1522029 C15.3621115,6.4730702 15.3734949,7.00449108 15.0469326,7.33915327 L15.0469326,7.33915327 Z" id="形状"></path>
            </g>
        </g>
    </g>
</svg>