<?xml version="1.0" encoding="UTF-8"?>
<svg width="18px" height="20px" viewBox="0 0 18 20" version="1.1" xmlns="http://www.w3.org/2000/svg" xmlns:xlink="http://www.w3.org/1999/xlink">
    <title>Gfashion选中</title>
    <g id="523" stroke="none" stroke-width="1" fill="none" fill-rule="evenodd">
        <g id="首页-导航菜单" transform="translate(-45.000000, -300.000000)" fill="#BE9C63">
            <g id="左侧菜单-英文">
                <g id="编组-33" transform="translate(0.000000, 280.000000)">
                    <g id="编组-25" transform="translate(15.000000, 15.000000)">
                        <g id="Gfashion选中" transform="translate(30.000000, 5.000000)">
                            <path d="M1.72769231,4.88358974 C1.68769231,4.62051282 2.00205128,4.43794872 2.19692308,4.61897436 C3.65076923,5.96769231 3.9625641,8.11179487 3.9625641,8.11179487 C3.9625641,8.11179487 7.31641026,4.02615385 7.16871795,0.601025641 C7.16,0.400512821 7.34358974,0.237948718 7.53384615,0.303076923 C11.2025641,1.56153846 12.6805128,7.31897436 12.6805128,7.31897436 C12.6805128,7.31897436 13.6574359,5.42 13.5451282,3.24461538 C13.5317949,2.98974359 13.8333333,2.84769231 14.0225641,3.01897436 C15.8276923,4.65435897 17.4358974,7.57384615 17.4358974,12.074359 C17.4358974,16.8892308 13.5328205,20 8.71794872,20 C3.90307692,20 6.21724894e-14,16.8892308 6.21724894e-14,12.074359 C6.21724894e-14,8.86461538 2.27179487,8.45076923 1.72769231,4.88358974 Z" id="形状结合"></path>
                        </g>
                    </g>
                </g>
            </g>
        </g>
    </g>
</svg>