<?xml version="1.0" encoding="UTF-8"?>
<svg width="21px" height="20px" viewBox="0 0 21 20" version="1.1" xmlns="http://www.w3.org/2000/svg" xmlns:xlink="http://www.w3.org/1999/xlink">
    <title>Gnews选中</title>
    <g id="523" stroke="none" stroke-width="1" fill="none" fill-rule="evenodd">
        <g id="首页-导航菜单" transform="translate(-13.000000, -1015.000000)">
            <g id="左侧菜单-英文">
                <g id="编组-27" transform="translate(13.500000, 890.000000)">
                    <g id="编组-25" transform="translate(0.000000, 120.000000)">
                        <g id="Gnews选中" transform="translate(0.000000, 5.000000)">
                            <path d="M20,16.9230769 C20,18.6225641 18.5077778,20 16.6666667,20 L3.33333333,20 C1.49222222,20 0,18.6225641 0,16.9230769 L0,3.07692308 C0,1.3774359 1.49222222,0 3.33333333,0 L16.6666667,0 C18.5077778,0 20,1.3774359 20,3.07692308 L20,16.9230769 L20,16.9230769 Z" id="Shape" fill="#BE9C63"></path>
                            <path d="M16.6666667,7 C16.6666667,6.07944444 15.9205556,5.33333333 15,5.33333333 L11.6666667,5.33333333 C10.7461111,5.33333333 10,6.07944444 10,7 L10,10.3333333 C10,11.2538889 10.7461111,12 11.6666667,12 L15,12 C15.9205556,12 16.6666667,11.2538889 16.6666667,10.3333333 L16.6666667,7 L16.6666667,7 Z" id="Shape" fill="#FFFFFF"></path>
                            <line x1="3.33333333" y1="5.33333333" x2="6.66666667" y2="5.33333333" id="Shape" stroke="#FFFFFF"></line>
                            <line x1="3.33333333" y1="8.66666667" x2="6.66666667" y2="8.66666667" id="Shape" stroke="#FFFFFF"></line>
                            <line x1="3.33333333" y1="12" x2="6.66666667" y2="12" id="Shape" stroke="#FFFFFF"></line>
                            <line x1="3.33333333" y1="15.3333333" x2="16.6666667" y2="15.3333333" id="Shape" stroke="#FFFFFF"></line>
                        </g>
                    </g>
                </g>
            </g>
        </g>
    </g>
</svg>