<?xml version="1.0" encoding="UTF-8"?>
<svg width="21px" height="19px" viewBox="0 0 21 19" version="1.1" xmlns="http://www.w3.org/2000/svg" xmlns:xlink="http://www.w3.org/1999/xlink">
    <title>GTV未选中</title>
    <g id="523" stroke="none" stroke-width="1" fill="none" fill-rule="evenodd">
        <g id="首页-导航菜单" transform="translate(-43.000000, -956.000000)">
            <g id="左侧菜单-英文">
                <g id="编组-27" transform="translate(13.500000, 890.000000)">
                    <g id="编组-25" transform="translate(0.000000, 60.000000)">
                        <g id="GTV未选中" transform="translate(30.000000, 6.000000)">
                            <path d="M20,16 C20,17.657 18.657,19 17,19 L3,19 C1.343,19 0,17.657 0,16 L0,3 C0,1.343 1.343,0 3,0 L17,0 C18.657,0 20,1.343 20,3 L20,16 L20,16 Z" id="Shape" fill="#656565"></path>
                            <line x1="0.5" y1="5" x2="2.5" y2="5" id="Shape" stroke="#FFFFFF"></line>
                            <line x1="0.5" y1="11" x2="2.5" y2="11" id="Shape" stroke="#FFFFFF"></line>
                            <line x1="0.5" y1="8" x2="2.5" y2="8" id="Shape" stroke="#FFFFFF"></line>
                            <line x1="0.5" y1="14" x2="2.5" y2="14" id="Shape" stroke="#FFFFFF"></line>
                            <line x1="17.5" y1="5" x2="19.5" y2="5" id="Shape" stroke="#FFFFFF"></line>
                            <line x1="17.5" y1="11" x2="19.5" y2="11" id="Shape" stroke="#FFFFFF"></line>
                            <line x1="17.5" y1="8" x2="19.5" y2="8" id="Shape" stroke="#FFFFFF"></line>
                            <line x1="17.5" y1="14" x2="19.5" y2="14" id="Shape" stroke="#FFFFFF"></line>
                            <path d="M8.1045,5.622 L12.8455,8.721 C13.381,9.0675 13.356,9.933 12.8205,10.2795 L8.117,13.3785 C7.5815,13.7245 7,13.2915 7,12.599 L7,6.401 C7,5.7085 7.569,5.2755 8.1045,5.622 L8.1045,5.622 Z" id="Shape" fill="#FFFFFF"></path>
                        </g>
                    </g>
                </g>
            </g>
        </g>
    </g>
</svg>