<?xml version="1.0" encoding="UTF-8"?>
<svg width="20px" height="17px" viewBox="0 0 20 17" version="1.1" xmlns="http://www.w3.org/2000/svg" xmlns:xlink="http://www.w3.org/1999/xlink">
    <title>喜马拉雅币选中</title>
    <g id="523" stroke="none" stroke-width="1" fill="none" fill-rule="evenodd">
        <g id="首页-导航菜单" transform="translate(-13.000000, -122.000000)">
            <g id="左侧菜单-英文">
                <g id="编组-34" transform="translate(13.000000, 115.000000)">
                    <g id="编组-26">
                        <g id="喜马拉雅币选中" transform="translate(0.000000, 7.000000)">
                            <path d="M20,1.42857143 C20,0.63952381 19.3604762,0 18.5714286,0 L1.42857143,0 C0.63952381,0 0,0.63952381 0,1.42857143 L0,5.23809524 C1.57809524,5.23809524 2.85714286,6.51714286 2.85714286,8.0952381 C2.85714286,9.67333333 1.57809524,10.952381 0,10.952381 L0,14.7619048 C0,15.5509524 0.63952381,16.1904762 1.42857143,16.1904762 L18.5714286,16.1904762 C19.3604762,16.1904762 20,15.5509524 20,14.7619048 L20,10.952381 C18.4219048,10.952381 17.1428571,9.67333333 17.1428571,8.0952381 C17.1428571,6.51714286 18.4219048,5.23809524 20,5.23809524 L20,1.42857143 Z" id="Shape" fill="#BE9C63"></path>
                            <text id="G" font-family="Helvetica" font-size="12" font-weight="normal" line-spacing="10" fill="#FFFFFF">
                                <tspan x="5" y="14">G</tspan>
                            </text>
                        </g>
                    </g>
                </g>
            </g>
        </g>
    </g>
</svg>