<?xml version="1.0" encoding="UTF-8"?>
<svg width="607px" height="140px" viewBox="0 0 607 140" version="1.1" xmlns="http://www.w3.org/2000/svg" xmlns:xlink="http://www.w3.org/1999/xlink">
    <title>JoinGclub</title>
    <defs>
        <path d="M135.495775,117 C135.805634,117 136.301408,116.879684 136.735211,116.639053 C138.03662,116.037475 139.028169,115.556213 139.833803,115.074951 C145.783099,111.525641 149.067606,107.374753 150.369014,103.705128 C151.608451,100.336292 151.856338,96.4861933 151.856338,93.0571992 C151.856338,90.0493097 151.670423,87.1617357 151.670423,84.5749507 L151.671414,68.7929152 C151.67538,63.6183826 151.695211,62.2323471 151.794366,60.6923077 C151.91831,58.586785 152.414085,57.5641026 154.087324,57.2633136 C154.830986,57.142998 155.202817,57.0828402 155.884507,57.0828402 C156.628169,57.0828402 157,56.9625247 157,56.5414201 C157,56.1203156 156.566197,56 155.698592,56 C153.396781,56 149.745923,56.1636947 148.118636,56.1792846 L147.890141,56.1804734 C146.278873,56.1804734 142.374648,56 139.090141,56 C138.160563,56 137.726761,56.1203156 137.726761,56.5414201 C137.726761,56.9625247 138.098592,57.0828402 138.780282,57.0828402 C139.647887,57.0828402 140.701408,57.142998 141.197183,57.2633136 C143.242254,57.6844181 143.738028,58.6469428 143.861972,60.6923077 C143.985915,62.617357 143.985915,64.3017751 143.985915,73.4457594 L143.985936,91.9310551 C143.98439,102.922429 143.882629,108.680283 139.338028,113.149901 C138.098592,114.353057 137.169014,115.014793 136.36338,115.435897 C135.309859,115.977318 135,116.217949 135,116.518738 C135,116.819527 135.247887,117 135.495775,117 Z M184.728395,102 C198.429355,102 207,92.8108108 207,81.0990991 C207,69.3873874 198.670782,62 185.271605,62 C169.156379,62 163,73.2912913 163,82 C163,91.0690691 169.277092,102 184.728395,102 Z M186.91453,100 C176.982906,100 171,91.6 171,80.9478261 C171,68.1652174 177.880342,65 183.74359,65 C192.239316,65 199,72.0608696 199,83.5043478 C199,98.2347826 190.623932,100 186.91453,100 Z M222.232082,101.81804 C223.706485,101.81804 227.392491,102 230.955631,102 C231.569966,102 232,101.81804 232,101.454121 C232,101.211509 231.754266,100.908243 231.139932,100.908243 C230.341297,100.908243 229.112628,100.847589 228.375427,100.726283 C226.778157,100.48367 226.409556,99.6951788 226.225256,98.3001555 C226.015927,96.4401244 225.984916,93.1716747 225.980321,89.1696736 L225.980505,73.9379533 C225.984437,69.506874 226.004096,68.3132193 226.102389,67.0031104 C226.225256,65.1835148 226.65529,64.4556765 228.129693,64.2130638 C228.744027,64.0917574 229.174061,64.0311042 229.726962,64.0311042 C230.279863,64.0311042 230.587031,63.9097978 230.587031,63.4245723 C230.587031,63.1213064 230.156997,63 229.481229,63 C227.502425,63 224.255472,63.1088733 222.769999,63.1203337 L222.539249,63.1213064 C221.003413,63.1213064 217.317406,63 215.290102,63 C214.430034,63 214,63.1213064 214,63.4245723 C214,63.9097978 214.307167,64.0311042 214.860068,64.0311042 C215.535836,64.0311042 216.211604,64.0917574 216.825939,64.273717 C217.993174,64.6376361 218.546075,65.244168 218.668942,67.0031104 C218.730375,68.6407465 218.730375,70.096423 218.730375,77.9206843 L218.730375,87.0186625 C218.730375,91.992224 218.730375,96.1166407 218.484642,98.2395023 C218.300341,99.755832 217.993174,100.48367 216.887372,100.726283 C216.395904,100.847589 215.78157,100.908243 214.982935,100.908243 C214.307167,100.908243 214.122867,101.211509 214.122867,101.454121 C214.122867,101.81804 214.491468,102 215.167235,102 C217.317406,102 221.003413,101.81804 222.232082,101.81804 Z M276.104278,102 C276.525401,102 276.946524,101.520958 276.946524,100.383234 L277.548128,68.2874251 C277.608289,65.4131737 278.029412,64.5149701 279.473262,64.0958084 C280.135027,63.9161677 280.55615,63.9161677 281.097594,63.9161677 C281.699198,63.9161677 282,63.6766467 282,63.3772455 C282,62.9580838 281.518717,62.8982036 280.796791,62.8982036 C278.327479,62.8982036 276.406323,63.0073242 275.713535,63.0172442 L275.622995,63.0179641 C274.479947,63.0179641 271.652406,62.8982036 268.885027,62.8982036 C268.102941,62.8982036 267.561497,62.9580838 267.561497,63.3772455 C267.561497,63.6766467 267.741979,63.9161677 268.403743,63.9161677 C269.125668,63.9161677 270.389037,63.9161677 271.171123,64.2155689 C272.434492,64.6946108 272.915775,65.5928144 272.975936,68.7065868 L273.51738,91.3413174 L273.276738,91.3413174 C272.494652,90.6227545 265.455882,83.4371257 261.846257,79.9041916 C254.145722,72.4191617 246.204545,64.3353293 245.542781,63.6766467 C244.640374,62.7784431 243.918449,62 243.256684,62 C242.715241,62 242.354278,62.7185629 242.354278,63.7365269 L241.872995,93.9161677 C241.812834,98.3473054 241.632353,99.7245509 240.248663,100.083832 C239.526738,100.263473 238.564171,100.323353 237.842246,100.323353 C237.360963,100.323353 237,100.562874 237,100.862275 C237,101.341317 237.481283,101.401198 238.203209,101.401198 C240.910428,101.401198 243.437166,101.221557 243.918449,101.221557 C244.881016,101.221557 247.347594,101.401198 250.776738,101.401198 C251.498663,101.401198 251.979947,101.281437 251.979947,100.862275 C251.979947,100.562874 251.679144,100.323353 251.07754,100.323353 C250.235294,100.323353 249.212567,100.263473 248.31016,99.9640719 C247.287433,99.6047904 246.625668,98.4071856 246.505348,94.4550898 L245.903743,73.6766467 L246.084225,73.6766467 C247.106952,74.5748503 252.701872,80.742515 258.477273,86.251497 C264.012032,91.5808383 270.629679,97.8682635 273.938503,100.922156 C274.479947,101.461078 275.201872,102 276.104278,102 Z M387.6,104 C398,104 411.066667,102.540816 419.733333,98.0306122 C421.333333,97.1020408 421.466667,96.8367347 421.466667,93.255102 L421.467872,74.6905825 C421.472454,69.877303 421.494444,65.8954082 421.6,62.744898 C421.733333,58.1020408 423.066667,55.8469388 426.666667,55.1836735 C428.266667,54.9183673 429.2,54.7857143 430.266667,54.7857143 C431.2,54.7857143 432,54.5204082 432,53.7244898 C432,52.6632653 431.066667,52.3979592 429.333333,52.3979592 C424.933333,52.3979592 417.866667,52.7959184 413.733333,52.7959184 C409.733333,52.7959184 401.333333,52.3979592 394.4,52.3979592 C392.533333,52.3979592 391.6,52.6632653 391.6,53.7244898 C391.6,54.5204082 392.4,54.7857143 393.6,54.7857143 C395.466667,54.7857143 397.733333,54.9183673 398.8,55.1836735 C403.2,56.1122449 404.4,58.2346939 404.533333,62.744898 C404.666667,66.7244898 404.666667,71.7653061 404.666667,78.3979592 L404.666667,90.8673469 C404.666667,93.122449 404.133333,94.8469388 402.133333,95.7755102 C398.933333,97.2346939 394.266667,97.2346939 390.8,97.2346939 C362.666667,97.2346939 344.4,75.877551 344.4,47.3571429 C344.4,31.0408163 349.2,21.0918367 356.666667,14.8571429 C366,7.16326531 375.733333,6.63265306 383.066667,6.63265306 C398.133333,6.63265306 408.8,12.7346939 412.8,16.9795918 C416.266667,20.6938776 416.933333,24.9387755 417.333333,27.9897959 C417.466667,29.0510204 417.733333,29.7142857 418.666667,29.7142857 C419.733333,29.7142857 420.133333,29.0510204 420.133333,26.9285714 C420.133333,10.3469388 421.066667,6.63265306 421.066667,5.17346939 C421.066667,4.24489796 420.8,3.71428571 419.2,3.58163265 C416.133333,3.44897959 411.466667,2.65306122 408.666667,2.12244898 C406,1.59183673 394.266667,0 385.066667,0 C373.866667,0 362,0.928571429 349.2,8.62244898 C337.066667,15.9183673 326,30.7755102 326,52 C326,88.6122449 354.933333,104 387.6,104 Z M487.030995,103 C493.261011,103 500.584013,102.451952 504.409462,100.917417 C506.04894,100.25976 506.486134,99.8213213 506.923328,98.1771772 C507.907015,94.9984985 509,86.8873874 509,85.7912913 C509,85.024024 508.562806,84.1471471 507.907015,84.1471471 C507.141925,84.1471471 506.923328,84.5855856 506.704731,86.0105105 C506.376835,87.7642643 505.065253,90.3948949 503.425775,92.2582583 C499.600326,96.533033 494.900489,97.1906907 486.375204,97.1906907 C473.477977,97.1906907 456.427406,86.6681682 456.427406,64.527027 C456.427406,55.4294294 458.176183,46.4414414 465.280587,40.3033033 C469.652529,36.5765766 475.008157,35.042042 483.424144,35.042042 C492.277325,35.042042 498.725938,37.3438438 502.004894,40.5225225 C504.409462,42.9339339 505.611746,46.2222222 505.721044,49.1816817 C505.721044,50.3873874 505.939641,51.1546547 506.704731,51.1546547 C507.579119,51.1546547 507.907015,50.1681682 508.016313,48.8528529 C508.125612,46.9894895 508.125612,41.8378378 508.344209,38.7687688 C508.562806,35.4804805 508.781403,34.3843844 508.781403,33.6171171 C508.781403,33.0690691 508.453507,32.6306306 507.360522,32.521021 C504.51876,32.1921922 501.349103,31.5345345 497.742251,30.9864865 C493.37031,30.4384384 489.763458,30 483.752039,30 C469.433931,30 460.252855,33.7267267 453.257749,39.8648649 C444.076672,48.0855856 442,59.0465465 442,65.4039039 C442,74.3918919 444.513866,84.9144144 454.022838,92.9159159 C462.766721,100.25976 473.915171,103 487.030995,103 Z M570.591667,99.503876 C571.35,96.7906977 572,89.9534884 572,88.8682171 C572,87.7829457 571.783333,86.8062016 571.133333,86.8062016 C570.375,86.8062016 570.158333,87.3488372 570.05,88.2170543 C569.833333,89.9534884 568.858333,92.5581395 567.666667,93.751938 C565.283333,96.248062 561.6,96.3565891 556.508333,96.3565891 C549.141667,96.3565891 545.458333,95.8139535 543.833333,94.4031008 C541.775,92.6666667 541.775,86.8062016 541.775,74.9767442 L541.775,58.6976744 C541.775,44.6976744 541.775,42.0930233 541.991667,39.1627907 C542.208333,35.9069767 542.966667,34.6046512 545.566667,34.1705426 C546.65,33.9534884 548.166667,33.8449612 549.25,33.8449612 C550.441667,33.8449612 550.983333,33.5193798 550.983333,32.8682171 C550.983333,32.2170543 550.333333,32 548.925,32 C545.241667,32 537.441667,32.2170543 535.166667,32.2170543 C532.566667,32.2170543 526.5,32 522.058333,32 C520.65,32 520,32.2170543 520,32.8682171 C520,33.5193798 520.541667,33.8449612 521.625,33.8449612 C522.816667,33.8449612 524.008333,33.9534884 524.766667,34.1705426 C527.8,35.0387597 528.666667,36.0155039 528.883333,39.1627907 C528.968452,41.4651163 528.986692,43.5664452 528.990601,51.152112 L528.990506,78.4289751 C528.983308,85.3967724 528.931481,91.255814 528.558333,94.620155 C528.233333,97.3333333 527.691667,99.0697674 525.741667,99.503876 C524.875,99.7209302 523.791667,99.8294574 522.383333,99.8294574 C521.191667,99.8294574 520.866667,100.372093 520.866667,100.806202 C520.866667,101.457364 521.516667,101.782946 522.708333,101.782946 C524.658333,101.782946 527.041667,101.674419 529.316667,101.565891 C531.591667,101.565891 533.65,101.457364 534.733333,101.457364 C538.633333,101.457364 542.641667,101.565891 547.408333,101.674419 C551.958333,101.881607 557.199294,101.98991 563.602325,102 L564.525,102 C569.508333,102 569.941667,101.565891 570.591667,99.503876 Z M616.310924,103 C622.537815,103 629.857143,102.022936 636.630252,96.3776758 C644.714286,89.7553517 645.806723,78.8990826 645.806723,68.5856269 L645.807772,56.4151124 C645.819208,44.4029994 645.922209,41.9288336 646.02521,39.1651376 C646.243697,35.9082569 646.89916,34.6055046 649.521008,34.1712538 C650.722689,33.9541284 651.268908,33.8455657 652.361345,33.8455657 C653.453782,33.8455657 654,33.5198777 654,32.8685015 C654,32.2171254 653.344538,32 652.033613,32 C648.319328,32 641.87395,32.2171254 640.781513,32.2171254 C640.672269,32.2171254 634.226891,32 629.310924,32 C628,32 627.344538,32.2171254 627.344538,32.8685015 C627.344538,33.5198777 627.890756,33.8455657 628.983193,33.8455657 C630.07563,33.8455657 631.714286,33.9541284 632.478992,34.1712538 C635.537815,35.0397554 636.302521,36.0168196 636.521008,39.1651376 C636.62401,41.9288336 636.727011,44.4029994 636.738446,56.4151124 L636.739496,70.32263 C636.739496,79.7675841 636.521008,87.8012232 631.168067,92.795107 C627.344538,96.4862385 622.428571,97.6804281 618.277311,97.6804281 C615,97.6804281 610.411765,97.3547401 606.151261,93.9892966 C601.453782,90.2981651 598.831933,85.087156 598.831933,71.6253823 L598.833033,52.449975 C598.838354,43.7989478 598.869388,41.5938401 599.05042,39.1651376 C599.268908,35.9082569 600.033613,34.6055046 602.546218,34.1712538 C603.747899,33.9541284 604.294118,33.8455657 605.386555,33.8455657 C606.369748,33.8455657 606.915966,33.5198777 606.915966,32.8685015 C606.915966,32.2171254 606.260504,32 604.840336,32 C601.344538,32 594.89916,32.2171254 592.495798,32.2171254 C589.655462,32.2171254 583.210084,32 578.07563,32 C576.655462,32 576,32.2171254 576,32.8685015 C576,33.5198777 576.546218,33.8455657 577.638655,33.8455657 C578.94958,33.8455657 580.588235,33.9541284 581.352941,34.1712538 C584.411765,35.0397554 585.285714,35.9082569 585.504202,39.1651376 C585.710204,41.9288336 585.62486,44.4029994 585.614434,56.4151124 L585.613445,72.2767584 C585.613445,85.6299694 589.436975,92.469419 594.352941,96.7033639 C601.344538,102.782875 611.285714,103 616.310924,103 Z M694.399232,102 C712.122841,102 720,91.7984496 720,81.9224806 C720,71.0697674 710.153551,64.4496124 702.276392,61.9534884 C707.746641,58.4806202 713.107486,52.9457364 713.107486,45.7829457 C713.107486,40.8992248 710.044146,32 692.648752,32 C689.366603,32 683.021113,32.2170543 678.207294,32.2170543 C676.347409,32.2170543 670.220729,32 665.1881,32 C663.765835,32 663,32.2170543 663,32.8682171 C663,33.5193798 663.65643,33.8449612 664.641075,33.8449612 C666.06334,33.8449612 667.704415,33.9534884 668.47025,34.1705426 C671.533589,35.0387597 672.408829,36.0155039 672.627639,39.1627907 C672.7136,41.4651163 672.73202,43.5664452 672.735968,51.152112 L672.735872,78.4289751 C672.728602,85.3967724 672.676264,91.255814 672.299424,94.620155 C671.971209,97.3333333 671.424184,99.0697674 669.454894,99.503876 C668.579655,99.7209302 667.485605,99.8294574 666.06334,99.8294574 C664.859885,99.8294574 664.53167,100.372093 664.53167,100.806202 C664.53167,101.457364 665.1881,101.782946 666.391555,101.782946 C668.360845,101.782946 670.767754,101.674419 673.065259,101.565891 C675.362764,101.565891 677.441459,101.457364 678.535509,101.457364 C680.067179,101.457364 683.458733,101.565891 686.740883,101.674419 C690.023033,101.891473 693.305182,102 694.399232,102 Z M690.121795,61 C687.942308,61 686.525641,60.8927039 685.653846,60.6781116 C685.326923,60.5708155 685,60.4635193 685,59.7124464 L685,37.7167382 C685,36.751073 685.217949,36.3218884 685.871795,36.2145923 C686.852564,36 688.705128,36 690.012821,36 C698.294872,36 702,43.6180258 702,49.7339056 C702,54.1330472 700.147436,57.4592275 697.641026,59.3905579 C696.00641,60.6781116 693.282051,61 690.121795,61 Z M695.237624,98 C693.059406,98 690.881188,97.890785 688.376238,96.9078498 C685.394499,95.7331816 685.015866,93.9320238 685.00051,88.1352538 L685,66.6552901 C685,66.109215 685.217822,66 685.544554,66 L689.683168,66 C693.386139,66 696,66.9829352 697.960396,68.4027304 C705.148515,73.3174061 707,80.6348123 707,84.894198 C707,95.1604096 700.356436,98 695.237624,98 Z" id="path-1"></path>
        <filter x="-3.2%" y="-14.5%" width="106.5%" height="132.5%" filterUnits="objectBoundingBox" id="filter-2">
            <feOffset dx="0" dy="2" in="SourceAlpha" result="shadowOffsetOuter1"></feOffset>
            <feGaussianBlur stdDeviation="6" in="shadowOffsetOuter1" result="shadowBlurOuter1"></feGaussianBlur>
            <feColorMatrix values="0 0 0 0 0   0 0 0 0 0   0 0 0 0 0  0 0 0 0.5 0" type="matrix" in="shadowBlurOuter1"></feColorMatrix>
        </filter>
    </defs>
    <g id="523" stroke="none" stroke-width="1" fill="none" fill-rule="evenodd">
        <g id="首页" transform="translate(-438.000000, -296.000000)" fill-rule="nonzero">
            <g id="主banner" transform="translate(0.000000, 71.000000)">
                <g id="编组-21" transform="translate(313.000000, 235.000000)">
                    <g id="JoinGclub">
                        <use fill="black" fill-opacity="1" filter="url(#filter-2)" xlink:href="#path-1"></use>
                        <use fill="#FFFFFF" xlink:href="#path-1"></use>
                    </g>
                </g>
            </g>
        </g>
    </g>
</svg>