<?xml version="1.0" encoding="UTF-8"?>
<svg width="21px" height="21px" viewBox="0 0 21 21" version="1.1" xmlns="http://www.w3.org/2000/svg" xmlns:xlink="http://www.w3.org/1999/xlink">
    <title>个人中心</title>
    <g id="控件" stroke="none" stroke-width="1" fill="none" fill-rule="evenodd">
        <g id="顶部导航" transform="translate(-1775.000000, -32.000000)" stroke="#222222" stroke-width="1.02564103">
            <g id="nav">
                <g id="导航栏" transform="translate(41.000000, 20.000000)">
                    <g id="编组-2" transform="translate(1694.000000, 9.000000)">
                        <g id="个人中心" transform="translate(41.000000, 4.000000)">
                            <path d="M18.0702564,19.4871795 C19.0651282,19.4871795 19.7353846,18.4964103 19.4,17.56 C18.3702564,14.6830769 16.0523077,12.4230769 13.1410256,11.4676923" id="Shape"></path>
                            <path d="M6.34615385,11.4682051 C3.43487179,12.4235897 1.11692308,14.6835897 0.0871794872,17.5605128 C-0.248205128,18.4969231 0.422051282,19.4876923 1.41692308,19.4876923" id="Shape"></path>
                            <path d="M15.8974359,6.15384615 C15.8974359,9.55230769 13.1420513,12.3076923 9.74358974,12.3076923 C6.34512821,12.3076923 3.58974359,9.55230769 3.58974359,6.15384615 C3.58974359,2.75538462 6.34512821,0 9.74358974,0 C13.1420513,0 15.8974359,2.75538462 15.8974359,6.15384615 L15.8974359,6.15384615 Z" id="Shape"></path>
                        </g>
                    </g>
                </g>
            </g>
        </g>
    </g>
</svg>